<?xml version="1.0" encoding="UTF-8"?><svg id="_Слой_1" xmlns="http://www.w3.org/2000/svg" width="1000" height="1000" viewBox="0 0 1000 1000"><g id="_35"><path d="M758.807,412.921c-1.14-1.45-2.88-2.37-4.45-3.31-3.84-2.22-7.74-4.32-11.88-5.92-6.96-3.08-14.31-5.11-21.57-7.32-7.26-2.25-14.41-4.86-21.48-7.65-2.91-5.95-5.79-11.94-9.39-17.51-1.93-3.43-7.07-13.2-11.17-14.73-.63-.45-1.59-.57-2.83-.05-3.17,1.74-5.15,5.05-7.81,7.44-4.38,4.26-8.28,8.97-12.51,13.37-5.49,5.32-9.66,11.77-14.1,17.95-4.89,6.34-10.65,11.93-15.65,18.17-4.24,4.88-8.36,9.84-12.22,15.02-1.44,1.74-2.89,3.46-4.25,5.26-.33.42-.64.84-.95,1.27-1.19,1.59-3.98,4.16-1.51,5.87.52.21,1,.27,1.45.25,2.68,5.36,5.35,10.75,7.68,16.26,1.55,3.09,3.23,6.11,4.77,9.2,1.17,2.35,2.26,4.75,3.14,7.24,1,2.61,1.92,5.24,2.87,7.87,1.38-.96,2.74-1.95,4.07-2.97-1.51-2.45-3.05-4.88-4.45-7.41-3.06-5.84-5.45-12.02-8.23-18-2.13-3.85-4.03-7.83-5.95-11.79-.36-.63-.68-1.35-1.08-2.02,1.17-1.27,2.16-3,3.28-4,7.28-7.27,14.38-14.9,19.75-23.72,8.27-12.42,18.53-23.39,28.47-34.46,4.52-5.02,9.2-9.87,13.66-14.93,2.42,3.4,4.5,7.01,6.53,10.66,1.62,3.08,3.72,5.87,5.41,8.91,1.04,2.21,2.42,4.24,3.28,6.53.3.58.56,1.2.85,1.82-1.19,1.1-2.23,2.39-3.33,3.57-4.61,5.23-8.1,11.28-11.35,17.42-2.96,4.24-5.24,8.89-8.12,13.18-4.05,5.77-8.24,11.45-12.37,17.16-3.63,5.24-6.04,11.21-9.68,16.43-3.44,4.49-7.16,8.77-10.38,13.43-1.09,1.53-2.11,3.11-3.12,4.7,5.35-4.37,10.27-9.25,15.41-13.86.6-1,1.2-2.01,1.83-2.99,4.32-6.82,9.39-13.17,13.28-20.26,1.73-3.1,3.04-6.43,5.12-9.33,3.2-4.46,6.74-8.66,9.93-13.13,1.64-2.05,2.94-4.33,4.22-6.62,3.03-5.04,6.36-9.88,10.14-14.38.55-.69,1.15-1.34,1.75-2,4.58,1.42,9.38,2.21,13.91,3.87,6.69,2.12,12.93,5.39,19.13,8.64,4.03,2.12,8.14,4.11,12.39,5.77,3.52,1.68,7.36,2.85,10.7,4.86-1.35,1.98-2.38,4.49-3.82,6.01-4.95,6.74-10.28,13.21-15.09,20.04-4.22,7-8.44,14-13.28,20.59-7.81,9.75-16.04,19.17-23.79,28.98-2.35,2.78-4.85,5.42-7.19,8.21-.65.88-1.85,1.78-2.98,2.73-6.63-2.59-12.71-6.34-18.96-9.73-1.83,2.11-3.72,4.18-5.69,6.18,4.42,2.52,8.91,4.91,13.46,7.2,2.62,1.41,5.65,1.88,8.2,3.32,2.95,1.11,5.59-.39,6.3-2.35,3.21-2.54,6.54-7.35,8.6-8.81,8.43-7.96,16.31-16.74,21.68-27.09,6.75-11.26,14.86-21.57,22.42-32.27,5.1-7.09,11.32-13.65,15.31-21.49.7-.48,1.1-1.23,1.18-1.99.8-.9,1.12-2.08.46-3.29Z"/><path d="M685,425.656c3.168,3.143,8.539,3.213,11.903.343,3.024,1.528,6.022,2.79,9.26,4.12-.636,5.656,4.274,11.413,9.788,12.281,7.27.541,8.758-7.305,6.179-12.696,3.853-1.181,7.515-3.529,5.834-8.091-2.211-5.867-8.039-3.785-11.863-.852-3.662-2.214-6.906-4.956-10.304-7.532-.326-3.771-2.173-7.792-5.53-9.752-5.435-2.698-11.16,2.069-8.972,7.921-7.748.593-12.069,8.2-6.296,14.257ZM692.38,416.69c.745-.258,1.488-.545,2.266-.682.637.125,1.289.017,1.75-.512,1.241-1.75-1.053-3.686-.887-5.59.033-1.459,2.085-2.758,3.296-1.943,1.855,1.921,1.587,4.802,2.87,6.98.842,1.045,2.121,1.552,3.285,2.146,2.419,1.187,4.711,2.613,7.144,3.776,1.138.612,2.314,1.192,3.305,2.031.38.366.853.751,1.496.662,1.983-.976,3.739-2.716,6.101-2.757.686.019,1.586-.132,2.008.541,1.714,3.22-1.892,4.891-4.45,5.878-2.039-1.802-5.313-.388-3.94,2.44,1.348,2.456,2.319,7.528-1.537,8.11-2.485-.383-4.509-2.703-5.492-4.917-.767-1.701.743-3.921-1.566-4.728-2.865-1.118-5.677-2.351-8.271-4.02-1.644-.842-2.773-3.229-4.895-2.59-1.788,1.094-3.786,2.102-5.846,1.019-1.537-2.46,1.233-4.944,3.362-5.845Z"/><path d="M626.305,437.039c-.658,3.059.626,6.535,3.362,8.156,4.995,2.522,11.802.181,14.811-4.394,7.245.209,15.705-5.862,14.496-13.754,4.578-5.936.679-14.397-7.059-10.296-.749-2.961-4.278-4.054-6.945-3.096-2.43.869-3.543,3.589-3.85,5.97-4.212,1.002-11.612,5.332-9.075,10.508-2.623,1.531-5.049,3.852-5.741,6.906ZM633.816,433.763c.557-.471,1.139-.967,1.846-1.188,1.296-.34,2.337-2.436,1.157-3.399.004-.004.008-.007.011-.011-.884-.506-2.568-1.286-2.113-2.539,1.655-2.18,4.568-3.439,7.292-3.299,1.681,1.244,4.132-1.38,3.183-3.081-.621-.679-.59-1.626-.389-2.475.113-1.117.861-1.282,1.85-1.217,1.276,0,2.422.9,2.63,2.175-2.906,1.964-3.751,7.818,1.061,7.271-.213.534-.337,1.103-.343,1.691-.012,1.086.437,2.18,1.401,2.734.898,2.204-3.237,4.193-5.038,4.19-1.435-.227-1.003-2.361-3.853-1.573-1.709.592-3.011,2.395-2.881,4.219.003,1.684-3.194,1.859-4.466,1.909-1.645.056-3.058-1.236-3.245-2.854.266-1.013,1.201-1.797,1.899-2.555Z"/><path d="M642.174,431.546c.866,0,1.727-.527,2.314-1.125.591-.602,1.025-1.39,1.154-2.231.11-.709-.001-1.487-.474-2.053-.44-.523-1.059-.715-1.72-.715-.866,0-1.727.527-2.314,1.125-.591.602-1.025,1.39-1.154,2.231-.11.709,0,1.487.474,2.053.44.523,1.059.714,1.72.714Z"/><path d="M721.408,412.097c.908-1.958,3.082-3.876,1.71-6.157-1.616-2.403-5.271-1.399-7.013.354-1.123,1.145-1.928,2.549-2.841,3.857-1.347,1.821-.649,4.734,1.716,5.212,2.552.663,5.283-1.012,6.427-3.266Z"/><path d="M734.502,412.391c-1.72.007-5.705,3.484-3.127,4.868,1.561.613,2.79-.576,3.638-1.799,1.479-.825,1.49-3.115-.511-3.069Z"/><path d="M732.033,426.067c.129,2.486,2.951,2.181,4.661,1.662,2.166.182,4.807-2.131,3.679-4.369-1.1-1.718-3.494-1.022-5.129-.66-1.597.341-3.178,1.629-3.21,3.367Z"/><path d="M727.461,435.168c1.327.056,2.659.081,3.987.083,2.357.437,5.578-2.937,2.812-4.566-1.687-.583-3.567-.353-5.326-.455-2.707-.111-5.098,4.366-1.473,4.938Z"/><path d="M665.242,380.48c-1.587.906-.113,2.393.601,3.352,1.401,1.921,2.735,3.888,4.005,5.897,2.057,3.468,3.738,7.14,5.786,10.613.828,1.464,3.412,1.607,4.247.083.179-.372.197-.872-.024-1.233-.982-1.605-1.994-3.192-2.925-4.827-1.94-3.468-3.833-6.974-6.21-10.168-1.373-1.621-2.891-4.952-5.48-3.717Z"/><path d="M660.444,388.163c-1.439-.63-2.886.788-1.399,1.916,2.71,3.242,5.385,6.534,7.546,10.174.623,1.017,1.255,2.026,1.823,3.074.818,1.191.99,3.105,2.561,3.546,1.045.334,2.536.015,2.898-1.142.211-1.341-1.541-2.662-2.12-3.854-2.671-4.087-5.8-7.859-8.981-11.558-.718-.77-1.373-1.67-2.329-2.156Z"/><path d="M677.42,387.616c.915,1.774,4.283,1.836,4.964-.177.305-1.116-.751-1.845-1.366-2.612-1.694-1.949-3.122-4.108-4.565-6.246-1.197-1.676-3.459-5.956-5.731-3.308-.375.762.396,1.324.719,1.936,1.893,3.305,4.134,6.959,5.98,10.408Z"/><path d="M710.987,558.681c-4.84-10.4-16.32-18.02-27.9-17.64-15.29.37-28.11,9.73-40.22,18.09-12.79,8.66-22.28,20.85-30.64,33.65-12.76,16.59-24.2,34.11-33.04,53.13-3.49,6.42-5.95,13.25-7.58,20.36.32-10.05-2.5-19.86-5.7-29.29-2.63-8.51-4.34-17.46-9.31-25.03-4.97-9.38-13.62-16-18.47-25.46-3.22-7.64-8.89-14.06-11.28-22.02-.09-.16-.19-.35-.27-.57,4.14.92,8.33,1.63,12.56,2.07,12.15,1.52,24.29-1.07,35.61-5.41,7.83-2.45,15.66-4.939,22.96-8.75,12.56-6.08,23.05-15.47,33.64-24.39,9.67-6.91,17.87-15.54,26.07-24.08,1.3-1.19,2.55-2.4,3.78-3.65,1.97-2,3.86-4.07,5.69-6.18,3.71-4.29,7.19-8.79,10.65-13.3,4.19-4.82,9.23-9.22,11.88-15.14,2.44-5.15,1.95-11.54-1.75-15.97-7.49-7.3-24.07,2.58-31.26,7.39-2.34,1.83-4.6,3.77-6.81,5.76-5.14,4.61-10.06,9.49-15.41,13.86-.41.34-.82.67-1.23,1-.64.51-1.29,1.02-1.94,1.52-1.33,1.02-2.69,2.01-4.07,2.97-6.05,4.25-12.43,8-18.81,11.75-12.17,7.91-22.35,19.04-36.31,24.03-8.88,3.29-16.8,1.43-25.59-.87-11.02-2.08-20.1-8.88-30.1-13.55-.85-2.44-1.85-4.83-3.07-7.11-1.89-3.36-4.04-6.57-6.26-9.72,4.76-.81,9.53-1.64,14.31-2.37,19.06-.66,37.65-4.5,56.04-9.41,14.45-3.25,29.6-3.57,43.78-7.86-1.54-3.09-3.22-6.11-4.77-9.2-2.33-5.51-5-10.9-7.68-16.26-.45.02-.93-.04-1.45-.25-2.47-1.71.32-4.28,1.51-5.87.31-.43.62-.85.95-1.27-13.45,1.18-26.11,6.17-39.12,9.44-10.21,1.91-20.5,3.42-30.58,5.95-7.97,2.06-15.78,4.83-23.93,6.17-7.54,1.15-15.19,1.28-22.78,1.95-.73.15-1.69.2-2.8.21-3.32-10.87-3.81-22.69-1.56-33.8,5.64-.979,11.2-2.4,16.65-4.18,7.82-2.38,15.74-4.82,22.35-9.81,2.2-1.6,4.62-3.22,5.9-5.7,1.79-5.39-1.32-7.28-5.35-7.5-4.64-2.22-9.91-2.59-14.8-4.15-4.38-1.05-8.29-3.31-12.2-5.46-2.72-1.62-5.49-3.2-7.98-5.17.65-.05,1.29-.1,1.93-.16,7.96-.97,15.68-3.34,23.58-4.68,10.82-1.72,21.38-4.69,31.48-8.93,11.45-4.6,22.63-14.15,27.99-25.34,2.95-7.53.1-17.04-7.15-20.96-8.98-4.62-19.52-2.95-29.25-4.07-4.01-.13-8-.63-12.01-.78-5.43-.28-10.83.48-16.25.55-7.93,0-15.69-1.54-23.42-3.12-14.73-2.97-29.29-7.5-44.37-8.2-.88-.09-2.27-.05-3.72.17-3.67-6.15-7.18-12.45-11.92-17.87-4.01-5.34-8.13-10.61-13.06-15.15-5.27-4.99-9.65-10.95-15.32-15.5-8.81-6.51-15.42-1.68-9.65,8.21,2.92,5.86,4.74,12.2,7.91,17.95,4.33,7.97,8.49,16.03,11.32,24.67,1.44,3.91,2.88,7.82,3.5,11.95-1.04,1.05-3.02,1.729-4.53,2.63-.2-.19-.43-.36-.68-.5-3.83-3.73-6.89-8.16-10.74-11.88-3.56-3.271-7-6.69-9.96-10.521-2.3-3.05-4.92-5.84-7.28-8.84-3.26-4.48-5.63-9.74-9.87-13.43-6.36-6.62-13.61-1.73-13.26,6.49.25,5.42,2.16,10.61,3.96,15.69,2.81,7.16,4.25,14.79,7.59,21.75,3.67,8.78,10.58,15.52,15.46,23.57,2.09,3.01,3.99,6.25,3.61,10.09-.57,7.22-2.94,14.15-4.08,21.29-2.58,15.67-5.69,31.3-5.59,47.27-.32,9.25.44,18.5.2,27.76-.36,15.46-1.87,30.89-1.06,46.36,1.09,17.09,2.37,34.16,3.44,51.26.68,6.98,1.81,13.92,2.84,20.88-7.78,3.66-16.02-2.13-22.74-5.89-8.85-6.08-15.04-14.9-21.79-23.06-3.71-4.37-8.36-7.82-12.26-12.02-4.68-6.96-20.77-12.95-22.79-1.02-.56,7.36,3.55,14,6.67,20.38,5.49,11.25,10.88,22.04,17.37,32.86,10.52,17.81,24.59,32.97,40.57,45.97-.79,1.96-1.73,3.87-2.81,5.69-1.08,2.2-3.64.46-5.27-.18-18.64-11.42-30.06-31.33-47.55-44.3-5.2-4.35-10.74-8.26-15.85-12.73-7.99-7.31-15.56-15.2-25.26-20.26-7.44-4.01-19.2-10.59-27.69-7.92-6.94,3.84-5.25,12.33-.99,17.59.83.95,3.19,4.1,5.45,6.04,1.69,1.85,3.51,3.62,4.93,5.54,10.63,12.61,23.1,23.37,35.01,34.72,10.81,11.46,20.75,23.73,32.46,34.34,17.09,15.76,29.35,36.66,48.61,50.09,10.4,7.36,17.74,1.27,22.54-8.66,1.55-2.69,2.44-6.07,5.01-8,2.7,2.23,4.01,5.63,5.67,8.62,3.46,6.17,6.94,12.36,11.09,18.09,6.15,8.17,14.24,14.79,22.81,20.3,12.16,8.09,26.76,10.38,40.8,13.18,13.69,2.56,27.35,5.25,41.3,5.79,1.17.04,2.35.06,3.53.06,8.33,0,16.76-1,24.69-3.55,9.98-1.24,18.94-6.51,27.16-12.19,6.54-4.48,13.66-8.16,19.35-13.78,6.13-5.29,10.66-12.04,15.74-18.28,7.1-9.23,14.82-18.021,20.83-28.021,3.79-6.42,7.23-13.1,11.92-18.94,6.02-7.46,12.85-14.22,19.03-21.55,6.38-7.6,12.73-15.22,20.2-21.78,10.13-9.72,21.79-19.13,27.24-32.43,1.92-5.13,3.43-10.99,1.07-16.22ZM687.497,456.731c.95,2.07-2.86,4-4.05,5.37-2.8,2.35-5.46,4.88-8.38,7.08-2.97,2.17-5.8,4.52-8.27,7.25-1.21,1.04-3.44,4.14-5,4.03-1.58-.5-1.27-2.93,0-3.63.91-.58,1.79-1.19,2.67-1.8,3.74-2.68,7.01-5.87,10.44-8.9,3.13-2.56,6.12-5.26,9.13-7.95.96-.59,2.4-2.94,3.46-1.45ZM655.657,470.661c.31-1.65,1.89-2.46,3.04-3.48,1.61-1.39,3.23-2.77,4.87-4.12,5.19-4.49,10.44-8.9,15.87-13.08,1.11-.76,2.16-1.9,3.53-2.08,2.19.32,1.7,3.57.09,4.41-5.55,4.78-10.96,9.71-16.46,14.54-1.88,1.73-3.77,3.44-5.77,5.021-1.06.76-1.91,2.14-3.31,2.189-1.62-.08-2.22-2.04-1.86-3.4ZM475.957,397.801c-8.74-2.97-16.25-8.18-20.65-16.4,2.66-.23,5.32-.32,7.98-.32,3.88,0,7.76.18,11.64.36,3.94.19,7.88.37,11.81.36,1.65,2.12,4.39,4.37,7.49,6.49-2.42.36-4.54.87-5.44,1.26-4.95,1.56-9.12,4.71-12.83,8.25ZM487.017,396.311c3.33-1.68,7-2.38,10.68-2.77.97-.06,1.92-.1,2.89-.08.8.14,1.63.26,2.38.05,3.34,1.76,6.4,3.12,8.35,3.78,1.53.47,3.03,1.05,4.58,1.49-10.13,2.4-22.35,3.08-33.44.77,1.37-1.27,2.91-2.34,4.56-3.24Z"/><path d="M618.208,437.913c.016.032.034.064.051.096-.005-.045-.011-.09-.016-.135-.012.013-.024.026-.035.039Z" fill="#fff"/><polygon points="586.607 357.121 586.609 357.119 586.609 357.118 586.606 357.119 586.607 357.121" fill="#fff"/><path d="M606.279,364.823c.037.007.074.014.111.021-.015-.061-.031-.122-.047-.183-.021.054-.042.107-.063.161Z" fill="#fff"/><path d="M666.597,466.851c5.5-4.83,10.91-9.76,16.46-14.54,1.61-.84,2.1-4.09-.09-4.41-1.37.18-2.42,1.32-3.53,2.08-5.43,4.18-10.68,8.59-15.87,13.08-1.64,1.35-3.26,2.73-4.87,4.12-1.15,1.02-2.73,1.83-3.04,3.48-.36,1.36.24,3.32,1.86,3.4,1.4-.05,2.25-1.43,3.31-2.189,2-1.58,3.89-3.29,5.77-5.021Z" fill="#fff"/><path d="M687.497,456.731c-1.06-1.49-2.5.86-3.46,1.45-3.01,2.69-6,5.39-9.13,7.95-3.43,3.03-6.7,6.22-10.44,8.9-.88.61-1.76,1.22-2.67,1.8-1.27.7-1.58,3.13,0,3.63,1.56.11,3.79-2.99,5-4.03,2.47-2.73,5.3-5.08,8.27-7.25,2.92-2.2,5.58-4.73,8.38-7.08,1.19-1.37,5-3.3,4.05-5.37Z" fill="#fff"/><path d="M505.247,485.606c.818.823,2.213.426,2.629-.611.681-1.383.054-3.002-1.105-3.9-1.652-1.914-3.258-3.864-4.95-5.747-2.845-3.583-5.417-7.395-7.416-11.519-.678-1.565-1.325-3.084-2.018-4.654-.258-1.876-2.542-2.532-3.193-.56-.496,1.927.794,3.757,1.321,5.555,3.056,8.206,8.829,15.104,14.732,21.437Z" fill="#fff"/><path d="M567.522,326.772c-.831-1.269-3.557-2.447-5.398-3.169-.831-.392-1.668-.773-2.518-1.12-2.003-.868-4.126-1.337-6.279-1.492-2.841-.485-5.731-.57-8.609.003-2.79-.298-5.191,1.672-6.401,4.048-.621.965-1.033,2.018-1.251,3.105-2.407,5.249-.271,11.427,2.265,16.263,2.644,4.574,5.538,6.381,10.71,7.223,7.087.984,14.305-2.086,19.037-7.343,2.357-2.959,3.084-6.942,2.468-10.627-.567-2.612-2.058-5.044-4.025-6.891Z" fill="#fff"/><path d="M446.521,345.223c-.397,3.395.157,8.281,3.419,10.136,2.326,1.224,4.511-1.171,5.157-3.256,1.311-3.568-.029-8.317-3.495-10.131-2.294-.909-4.598,1.051-5.082,3.251Z" fill="#fff"/><path d="M463.604,330.323c-2.76,2.247-1.221,7.395,1.689,8.831,1.254.466,2.662-.333,3.346-1.394,1.791-2.462,1.501-6.232-.691-8.366-1.317-1.543-3.627-.828-4.344.929Z" fill="#fff"/><path d="M440.206,345.99c.812-1.02.392-2.409.877-3.569,1-2.944,2.277-6.22,4.934-8.036.96-.446,2.049-.399,3.082-.489,2.367-.129,2.184-4.659-.248-4.403-1.846.173-3.82.401-5.247,1.708-2.899,2.259-8.155,12.029-5.014,15.09.528.355,1.215.158,1.617-.301Z" fill="#fff"/><path d="M454.287,326.672c1.044.402,1.997-.553,2.099-1.579,4.028-4.178,8.099.604,8.565-4.363.056-3.51-4.199-2.705-6.438-2.02-2.915.744-7.855,5.36-4.226,7.962Z" fill="#fff"/><path d="M507.308,608.414c-6.353-6.157-12.127-13.035-19.395-18.148-4.608-3.205-9.189-6.449-13.741-9.735-3.375-2.398-6.561-5.057-9.993-7.374-3.399-2.351-7.194-4.038-10.942-5.748-8.104-3.423-23.874-7.555-32.416-5.798-5.531,1.352-10.267,4.769-14.665,8.249-4.159,3.248-7.083,7.687-10.068,11.97-2.015,2.893-4.079,5.755-6.036,8.688-.224-4.263-1.14-8.598-1.71-12.836-.207-1.347-.432-2.698-.565-4.056.208-.834.115-1.71-.563-2.324-1.882-1.389-4.053.841-4.281,2.862-.176,6.022,1.413,11.963,1.828,17.956.3,1.667-.177,4.156,1.16,5.37-1.577,3.026-3.05,6.108-4.573,9.161-2.196,4.677-4.597,10.239-6.251,15.426-.517,2.184-3.865,7.052.091,7.557,2.748.111,3.506-2.456,4.312-4.536,1.797-3.508,3.128-7.224,4.62-10.868,1.617-4.152,3.011-8.395,4.885-12.443,1.737-4.521,3.312-9.134,5.955-13.23,3.682-5.419,8.055-10.604,13.701-14.042,4.514-2.357,8.823-5.355,13.789-6.672,11.774-2.042,20.31,2.319,30.426,7.497,5.2,2.409,9.74,4.645,15.06,7.252,7.943,3.736,14.72,9.48,20.706,15.832,5.817,5.854,11.424,11.906,16.835,18.138,1.628,1.911,3.107,3.939,4.723,5.859,1.461,2.163,2.689,3.344,5.278,1.742,3.376-2.292.525-5.345-1.191-7.624-2.061-2.926-4.469-5.581-6.98-8.124Z" fill="#fff"/><path d="M433.386,632.706c-12.313-1.902-18.417,11.656-24.351,20.03-2.835,4.21-5.621,8.443-8.611,12.542-.766,1.151-1.534,2.314-2.397,3.396-1.54,1.883-4.708,5.431-1.28,7.091,4.873,1.417,7.054-5.441,8.684-8.843.817-2.089,2.028-3.976,3.095-5.939,3.773-7.048,8.855-13.384,14.31-19.202,1.448-1.27,2.833-2.781,4.641-3.523,3.39-.894,6.594,1.436,8.325,4.199,2.219,3.52,3.326,7.615,5.698,11.057.548.854,1.004,1.939,2.023,2.312,2.109.774,4.78-1.147,4.736-3.388-.616-2.271-2.138-4.23-2.915-6.468-2.046-5.725-5.337-12.188-11.957-13.263Z" fill="#fff"/><path d="M475.957,541.85c5.638,2.959,11.892,4.534,17.427,7.725,4.591,2.64,9.179,5.256,14.031,7.391,4.51,2.376,9.023,4.775,13.552,7.094,1.682.845,4.341-1.503,2.629-3.024-5.405-3.381-11.344-5.946-16.96-8.987-9.116-4.428-18.216-8.918-26.619-14.625-2.541-1.918-7.285,2.365-4.058,4.427Z" fill="#fff"/><path d="M544.914,534.864c-3.659-1.583-7.249-3.303-10.812-5.087-2.818-1.588-7.506,2.985-4.093,5.085,6.943,3.28,13.847,6.725,21.25,8.865,2.313,1.105,6.085-1.85,4.299-4.219-3.202-2.145-7.193-2.92-10.644-4.644Z" fill="#fff"/><path d="M546.155,552.504c1.88.376,4.458-2.19,2.654-3.771-2.938-1.602-6.31-2.3-9.463-3.391-2.39-.943-5.682,3.058-2.583,4.266,3.14.92,6.206,2.167,9.392,2.896Z" fill="#fff"/><path d="M492.945,535.089c4.367,1.845,8.53,4.183,12.927,5.931,1.55.58,3.885-1.62,2.381-2.953-4.012-2.502-8.579-4.047-12.883-5.992-1.686-.902-4.43,1.743-2.425,3.014Z" fill="#fff"/><path d="M528.629,588.461c-1.162-.924-2.112-2.347-3.624-2.677-2.197-.133-3.242,2.573-2.8,4.412,1.278,3.25,4.726,5.155,6.688,8.008,1.557,1.982,2.832,4.139,4.119,6.303.42.79,1.15,2.011,2.245,2.066,2.673.133,3.805-3.559,2.685-5.597-2.561-4.556-5.425-8.971-9.314-12.515Z" fill="#fff"/><path d="M522.085,601.441c-2.938-2.429-5.612,2.43-4.063,4.931.624,1.168,1.536,2.163,2.315,3.23,2.303,3.115,3.981,6.621,5.791,10.031.406.771,1.082,1.417,1.983,1.521,2.834.142,4.007-3.747,2.833-5.905-2.487-4.864-4.849-9.99-8.858-13.807Z" fill="#fff"/><path d="M546.06,623.447c-1.393-2.083-4-.184-4.033,1.831-.034,3.371,2.715,6.049,3.77,9.148,1.263,2.996,2.258,6.096,3.319,9.168.236.683.748,1.325,1.455,1.548,2.374.578,3.556-2.586,2.84-4.442-1.875-5.974-3.769-12.044-7.352-17.253Z" fill="#fff"/><path d="M548.725,658.355c-1.305-3.543-2.672-7.082-4.375-10.455-1.668-3.512-4.827.111-3.672,2.723,1.774,4.662,3.905,9.197,5.385,13.977.218.632.692,1.226,1.347,1.433,2.168.541,3.33-2.407,2.628-4.111-.433-1.19-.873-2.378-1.314-3.567Z" fill="#fff"/><path d="M353.067,573.413c-2.263-3.133-4.553-6.267-7.337-8.965-3.838-4.216-7.985,2.464-6.224,6.254,1.958,3.625,5.118,6.557,7.517,9.918,4.32,5.13,9.146-3.327,6.043-7.208Z" fill="#fff"/><path d="M355.681,585.689c-1.229-2.801-4.206-.81-4.068,1.613.038,3.482,5.418,8.015,7.722,11.08.909,1.086,2.584.623,3.217-.517.814-1.255.781-3.027-.194-4.178-2.213-2.675-4.568-5.241-6.677-7.998Z" fill="#fff"/><path d="M368.407,583.798c-2.527-2.508-5.042-5.035-7.8-7.293-3.43-1.981-5.198,3.876-2.289,6.056,2.169,2.235,4.444,4.366,6.669,6.547,2.171,2.148,4.727-1.047,4.262-3.343-.079-.695-.336-1.461-.842-1.966Z" fill="#fff"/><path d="M266.512,576.052c-4.051-4.536-7.767-9.403-12.118-13.663-1.878-2.194-4.278.691-2.707,2.575,6.505,5.917,12.179,12.768,18.059,19.311.542.643,1.525.366,1.903-.305,1.585-2.568-3.804-5.785-5.138-7.918Z" fill="#fff"/><path d="M275.816,565.054c-2.107-1.953-4.223-3.894-6.242-5.938-1.985-1.936-3.915-3.927-5.728-6.026-.315-.833-.889-1.557-1.76-1.822-2.056-.657-3.662,1.517-3.817,3.367-.24,5.634,6.501,9.727,9.934,13.571,3.719,3.055,6.934,6.812,10.847,9.592,2.868.746,4.543-2.968,3.897-5.337-1.237-3.222-4.866-4.908-7.132-7.407Z" fill="#fff"/><path d="M317.329,534.191c-2.092-5.954-6.11.131-3.325,3.636,2.329,3.923,5.104,7.57,7.459,11.48,1.635,1.976,3.018,6.569,5.251,7.457,6.34-1.05-2.394-10.541-3.655-13.482-1.86-3.061-3.82-6.062-5.73-9.091Z" fill="#fff"/><path d="M326.359,531.131c-2.914-4.797-7.081.37-3.794,3.614,4.036,5.734,7.91,11.583,11.76,17.444,2.395,2.963,5.369-1.972,3.501-4.177-3.97-5.525-7.557-11.318-11.467-16.881Z" fill="#fff"/></g></svg>