<svg xmlns="http://www.w3.org/2000/svg" viewBox="0 0 303 82"><path d="M242.643 72.8453C242.791 71.8805 243.043 70.6909 243.399 69.2768C243.752 67.8304 244.1 66.4826 244.443 65.2334C244.818 63.9804 245.32 62.4184 245.949 60.5474C246.575 58.6442 247.058 57.1987 247.399 56.2111C247.74 55.2235 248.242 53.7923 248.903 51.9175C249.564 50.0427 249.942 48.9527 250.037 48.6475C250.674 46.8409 251.728 44.4135 253.199 41.3653C254.702 38.3133 255.915 35.4423 256.84 32.7524C257.794 30.0265 258.347 27.2333 258.5 24.3728C258.82 18.4869 259.715 14.0199 261.186 10.9717C262.689 7.91966 264.952 6.60774 267.976 7.03592C269.934 7.29547 271.68 7.97207 273.214 9.06571C274.776 10.1233 276.132 11.5155 277.283 13.2424C278.462 14.9331 279.496 16.641 280.385 18.3659C281.307 20.087 282.357 22.0707 283.536 24.3169C284.716 26.5631 285.833 28.4245 286.889 29.9011C287.829 31.2279 288.984 33.5424 290.353 36.8444C291.718 40.1142 292.631 42.1794 293.092 43.0399C293.723 44.2398 294.935 47.1845 296.729 51.8741C298.555 56.5599 299.857 59.5757 300.636 60.9215C301.618 62.6028 301.979 63.9979 301.717 65.1069C301.492 66.2443 300.804 67.0604 299.653 67.5552C298.506 68.0823 297.103 68.5089 295.442 68.835C293.785 69.1934 292.029 69.4002 290.173 69.4553C289.364 69.5179 288.606 68.9047 287.898 67.6158C287.195 66.3591 286.623 64.9725 286.184 63.456C285.74 61.9074 285.106 60.5445 284.281 59.3674C283.453 58.158 282.51 57.6482 281.455 57.8378C280.943 57.9308 279.479 58.2664 277.064 58.8447C274.678 59.387 272.437 59.7815 270.343 60.0281C269.892 60.0812 269.036 60.1656 267.775 60.2813C266.511 60.3648 265.574 60.4587 264.966 60.563C264.386 60.6313 263.66 60.8475 262.788 61.2115C261.912 61.5433 261.182 62.0049 260.599 62.5964C260.015 63.1879 259.442 64.5622 258.879 66.7194C258.316 68.8767 257.668 70.8642 256.934 72.6822C256.237 74.5285 255.36 75.5465 254.304 75.7362C253.002 76.0528 251.638 76.2624 250.213 76.3649C248.791 76.4996 247.473 76.5404 246.258 76.4874C245.079 76.4629 244.141 76.1322 243.445 75.4953C242.753 74.8907 242.486 74.0073 242.643 72.8453ZM265.679 46.2181C264.797 47.89 265.193 48.889 266.864 49.2149C268.303 49.5029 271.278 49.3814 275.79 48.8503C276.402 48.7782 276.918 48.7175 277.337 48.6682C277.788 48.6151 278.187 48.5354 278.534 48.4293C278.877 48.2909 279.145 48.2103 279.338 48.1875C279.56 48.1287 279.742 48.0093 279.884 47.8292C280.055 47.6131 280.169 47.469 280.225 47.397C280.282 47.3249 280.31 47.142 280.308 46.8482C280.334 46.5184 280.324 46.2909 280.277 46.1658C280.258 46.0047 280.222 45.6985 280.168 45.2474C280.112 44.764 280.068 44.3934 280.038 44.1356C279.893 42.9111 279.312 41.1662 278.294 38.9011C277.276 36.6359 276.356 35.0617 275.533 34.1784C274.602 33.2098 273.538 32.9104 272.34 33.2801C271.174 33.6461 270.361 34.5096 269.9 35.8706C269.538 36.9587 269.213 37.9445 268.925 38.8278C268.669 39.7074 268.521 40.2477 268.479 40.4486C268.466 40.6135 268.33 40.9889 268.072 41.5746C267.815 42.1604 267.551 42.6978 267.282 43.1869C267.013 43.676 266.478 44.6864 265.679 46.2181Z" fill="black"></path><path d="M180.042 72.9377C178.679 73.0026 177.624 72.7917 176.878 72.305C176.164 71.8183 175.71 71.1045 175.515 70.1635C175.32 69.2225 175.223 68.0706 175.223 66.7078C175.223 65.3126 175.272 63.7551 175.369 62.0354C175.499 60.3157 175.499 58.4338 175.369 56.3896C175.077 51.2629 174.882 47.5801 174.785 45.3412C174.72 43.1024 174.736 39.955 174.834 35.899C174.963 31.8107 175.32 27.5925 175.904 23.2446C176.489 18.8966 177.348 13.6239 178.484 7.42647C178.906 5.09026 179.977 3.35433 181.696 2.21867C183.416 1.08301 185.395 0.596301 187.634 0.758538C189.873 0.920775 192.242 1.58595 194.74 2.75405C197.239 3.88971 199.477 5.41474 201.457 7.32913C202.755 8.59458 204.085 11.0768 205.448 14.7758C206.454 17.5014 207.2 19.1238 207.687 19.6429C208.433 20.4216 209.325 20.1621 210.364 18.8642C210.72 18.4099 211.207 17.8259 211.824 17.112C212.473 16.3657 213.3 15.4085 214.306 14.2404C215.344 13.0723 216.431 11.9204 217.567 10.7848C218.703 9.64912 219.903 8.48101 221.169 7.28046C222.434 6.07991 223.683 5.04159 224.916 4.16551C226.182 3.28943 227.366 2.55937 228.469 1.97532C229.605 1.39126 230.643 1.11546 231.584 1.14791C232.558 1.14791 233.336 1.4886 233.92 2.17C236.159 4.83068 237.652 8.93528 238.398 14.4838C239.144 20.0323 239.08 26.7813 238.203 34.7309C238.041 36.0613 237.83 37.7648 237.571 39.8414C237.344 41.8856 237.181 43.3457 237.084 44.2218C237.019 45.0654 236.922 46.2822 236.792 47.8721C236.662 49.4621 236.581 51.0844 236.549 52.7392C236.516 54.3941 236.5 56.3896 236.5 58.7258C236.5 61.2891 236.403 63.4955 236.208 65.345C236.013 67.1945 235.77 68.6222 235.478 69.6281C235.218 70.634 234.845 71.4289 234.358 72.013C233.904 72.6295 233.499 73.0351 233.142 73.2298C232.785 73.4244 232.33 73.5705 231.779 73.6678C230.351 73.9598 229.151 74.1545 228.177 74.2519C227.204 74.3492 226.311 74.3492 225.5 74.2519C224.722 74.187 224.105 73.9923 223.651 73.6678C223.197 73.3758 222.791 72.9215 222.434 72.305C222.11 71.721 221.899 70.9909 221.801 70.1148C221.704 69.2387 221.639 68.1842 221.607 66.9512C221.607 65.6857 221.639 64.2743 221.704 62.7168C221.801 61.1269 221.915 59.3098 222.045 57.2656C222.272 53.8911 222.434 51.2142 222.531 49.2349C223.018 39.8576 222.596 33.1735 221.266 29.1824C220.617 27.3005 219.952 26.7002 219.27 27.3816C219.205 27.4141 219.157 27.4627 219.124 27.5276C217.989 28.9553 216.983 30.4154 216.107 31.908C215.263 33.4006 214.663 34.5363 214.306 35.315C213.981 36.0613 213.381 37.5863 212.505 39.8901C211.661 42.1938 211.061 43.8162 210.704 44.7572C208.757 49.7216 207.054 52.0254 205.594 51.6685C204.166 51.3116 202.722 48.2939 201.262 42.6157C199.575 36.1586 197.628 31.2753 195.422 27.9657C193.961 25.6943 192.712 24.7047 191.674 24.9967C190.636 25.2888 190.003 26.9273 189.776 29.9125C189.646 31.3726 189.484 33.1572 189.289 35.2663C189.094 37.343 188.965 38.868 188.9 39.8414C188.835 40.8148 188.77 42.0478 188.705 43.5404C188.64 45.033 188.624 46.4769 188.656 47.8721C188.721 49.2674 188.819 50.8573 188.948 52.6419C189.013 53.5504 189.127 54.7185 189.289 56.1462C189.484 57.5739 189.646 58.7745 189.776 59.7479C189.906 60.6888 189.987 61.7921 190.019 63.0575C190.052 64.2905 189.987 65.3288 189.824 66.1725C189.695 66.9836 189.419 67.8435 188.997 68.752C188.575 69.6281 187.991 70.3419 187.245 70.8935C186.531 71.4452 185.558 71.8994 184.325 72.2563C183.124 72.6457 181.696 72.8728 180.042 72.9377Z" fill="black"></path><path d="M150.738 74.9279C150.252 73.5002 149.716 71.3749 149.132 68.552C148.548 65.6966 147.607 62.971 146.309 60.3752C145.79 59.3045 145.417 58.5582 145.19 58.1364C144.963 57.7146 144.557 57.0656 143.973 56.1895C143.422 55.3134 142.919 54.6969 142.464 54.34C142.043 53.9507 141.475 53.61 140.761 53.3179C140.047 53.0259 139.301 52.9123 138.522 52.9772C137.451 53.0746 136.559 53.4964 135.845 54.2427C135.164 54.9565 134.661 55.8975 134.336 57.0656C134.044 58.2013 133.833 59.2882 133.704 60.3266C133.574 61.3324 133.476 62.4356 133.412 63.6362C133.379 64.8043 133.33 65.5668 133.265 65.9237C132.973 67.5461 132.892 69.0549 133.022 70.4501C133.184 71.8129 133.282 73.0459 133.314 74.1491C133.347 75.2848 133.249 76.242 133.022 77.0207C132.795 77.7995 132.179 78.3835 131.173 78.7729C130.199 79.1947 128.739 79.3894 126.792 79.3569C123.742 79.3245 121.909 78.1402 121.292 75.804C120.708 73.5002 120.725 69.3632 121.341 63.3928C121.536 60.3752 121.682 57.9579 121.779 56.1409C121.941 52.961 122.022 48.8564 122.022 43.8271C122.022 38.7977 122.331 32.9248 122.947 26.2081C123.142 23.9368 123.126 21.8602 122.899 19.9783C122.671 18.0963 122.396 16.7173 122.071 15.8412C121.779 14.9651 121.682 14.0242 121.779 13.0183C121.909 11.98 122.363 10.9092 123.142 9.806C123.953 8.70279 126.338 7.97272 130.297 7.6158C134.255 7.22643 137.695 7.08042 140.615 7.17776C144.346 7.2751 147.299 7.64825 149.473 8.2972C151.647 8.94614 155.638 10.747 161.446 13.6997C164.042 15.03 165.875 16.5551 166.946 18.2748C168.017 19.9945 168.26 22.136 167.676 24.6993C167.092 27.2627 165.551 30.1992 163.052 33.5088C162.533 34.1902 161.608 35.0176 160.278 35.991C158.948 36.9645 157.698 37.8243 156.53 38.5706C155.395 39.3169 154.47 40.1767 153.756 41.1502C153.042 42.1236 152.896 43.0159 153.318 43.8271C154.097 45.3521 155.086 47.0394 156.287 48.8889C157.487 50.7059 158.51 52.4418 159.353 54.0967C160.197 55.719 160.927 57.6821 161.543 59.9859C162.127 62.1598 162.663 63.9769 163.15 65.437C163.669 66.8972 164.009 67.8381 164.172 68.2599C164.366 68.6818 164.545 69.3307 164.707 70.2068C164.902 71.0829 165.08 72.4132 165.242 74.1978C165.372 75.6255 165.307 76.8098 165.048 77.7508C164.821 78.7242 164.399 79.4705 163.782 79.9897C163.166 80.5088 162.517 80.8657 161.835 81.0604C161.154 81.2876 160.294 81.4498 159.256 81.5471C157.666 81.8067 156.384 81.8554 155.411 81.6932C154.437 81.5634 153.626 81.028 152.977 80.087C152.361 79.1785 151.614 77.4588 150.738 74.9279ZM150.154 22.7525C148.759 21.2599 147.137 20.1567 145.287 19.4429C143.438 18.6966 141.961 18.6155 140.858 19.1995C140.371 19.4591 140.047 19.8809 139.885 20.465C139.755 21.0166 139.674 21.844 139.641 22.9472C139.641 24.018 139.593 24.8616 139.495 25.4781C139.463 25.6728 139.398 26.0621 139.301 26.6462C139.203 27.2302 139.138 27.6683 139.106 27.9603C139.074 28.2199 139.041 28.6255 139.009 29.1771C138.976 29.6962 138.992 30.1018 139.057 30.3939C139.155 30.6859 139.284 31.0104 139.447 31.3673C139.609 31.7242 139.852 32.0162 140.177 32.2434C140.501 32.4705 140.891 32.649 141.345 32.7787C142.61 33.1032 144.038 33.0545 145.628 32.6327C147.25 32.1785 148.629 31.4808 149.765 30.5399C150.901 29.5665 151.598 28.4146 151.858 27.0842C152.15 25.7214 151.582 24.2775 150.154 22.7525Z" fill="black"></path><path d="M74.2877 66.4103C73.9957 64.8853 73.7361 60.6509 73.509 53.7072C73.3143 46.731 73.006 41.1987 72.5842 37.1103C72.2273 33.8332 72.0488 30.7993 72.0488 28.0089C72.0813 25.1859 72.2111 22.7362 72.4382 20.6595C72.6653 18.5829 73.1358 16.6685 73.8497 14.9163C74.5635 13.1642 75.2124 11.7203 75.7965 10.5846C76.3806 9.4165 77.2729 8.32952 78.4734 7.32365C79.674 6.31778 80.6312 5.55527 81.345 5.03611C82.0913 4.4845 83.2107 3.9329 84.7033 3.38129C86.1959 2.82969 87.2829 2.45654 87.9643 2.26186C88.6781 2.06717 89.8138 1.77515 91.3712 1.38578C93.091 0.963963 94.3564 0.623265 95.1676 0.363686C99.9049 -1.09645 104.594 1.84004 109.234 9.17315C110.759 11.6067 111.764 14.1376 112.251 16.7658C112.738 19.3616 113.014 22.5577 113.079 26.354C113.111 28.5605 113.241 31.1725 113.468 34.1901C113.695 37.1752 113.857 39.625 113.955 41.5394C114.052 43.4538 114.036 45.5467 113.906 47.818C113.809 50.0568 113.419 52.1984 112.738 54.2426C112.089 56.2543 111.132 58.2336 109.866 60.1804C109.152 61.2836 108.211 63.0682 107.043 65.5342C105.908 67.9678 104.658 70.2229 103.296 72.2995C101.933 74.4086 100.262 76.2905 98.2825 77.9454C96.4655 79.4704 94.5186 80.4438 92.442 80.8656C90.3654 81.3199 88.3699 81.2388 86.4555 80.6223C84.5411 80.0382 82.7402 79.0972 81.053 77.7994C79.3982 76.5339 77.9705 74.8953 76.7699 72.8836C75.5694 70.8718 74.742 68.7141 74.2877 66.4103ZM92.5393 66.9457C93.3181 66.5239 93.9995 65.5342 94.5835 63.9768C95.2 62.3868 95.7679 60.3102 96.287 57.7469C96.8062 55.1835 97.0658 53.8856 97.0658 53.8532C97.2929 53.0096 97.5525 52.0848 97.8445 51.0789C98.169 50.0406 98.4285 49.2294 98.6232 48.6454C98.8179 48.0289 99.0288 47.2664 99.256 46.3578C99.5155 45.4169 99.6615 44.6219 99.694 43.973C99.7589 43.2916 99.8076 42.383 99.84 41.2474C99.9049 40.1117 99.8562 39.041 99.694 38.0351C99.1748 33.2329 99.0288 27.0517 99.256 19.4914C99.3533 16.636 98.4772 14.9163 96.6277 14.3323C94.9729 13.8456 93.2045 14.3647 91.3226 15.8898C88.9215 17.8042 87.5425 20.4162 87.1855 23.7258C87.0557 24.6343 87.0395 25.5753 87.1369 26.5487C87.5911 33.0382 87.7047 37.4673 87.4776 39.8359C87.2504 42.2046 86.9097 44.8166 86.4555 47.672C86.0012 50.4949 85.7903 53.1556 85.8227 55.654C85.8552 56.6923 85.9039 57.7144 85.9688 58.7203C86.0661 59.6937 86.2121 60.7158 86.4068 61.7866C86.6339 62.8573 86.9097 63.7659 87.2342 64.5122C87.5587 65.2584 87.9643 65.9398 88.451 66.5563C88.9377 67.1404 89.5217 67.4486 90.2031 67.4811C90.8845 67.5135 91.6633 67.3351 92.5393 66.9457Z" fill="black"></path><path d="M0.0449271 65.4859C0.401848 60.7485 0.774993 57.3253 1.16436 55.2163C1.58618 53.0747 2.4947 49.684 3.88994 45.044C4.4091 43.3243 4.71735 40.7447 4.81469 37.3053C4.91203 33.8334 4.89581 30.5725 4.76602 27.5224C4.63623 24.4399 4.70113 21.5521 4.96071 18.859C5.22028 16.1658 5.75567 14.4948 6.56685 13.8459C8.83817 12.0612 11.2717 11.1365 13.8675 11.0716C16.4957 10.9743 18.9131 11.5908 21.1195 12.9211C23.3259 14.2514 25.143 16.0523 26.5707 18.3236C27.8361 20.3029 29.7505 22.9798 32.3138 26.3543C34.9096 29.7288 37.3594 33.4765 39.6632 37.5973C41.1233 40.258 42.2427 41.8804 43.0215 42.4644C44.6763 43.7299 46.0715 42.3509 47.2072 38.3274C47.4343 37.5487 47.6452 36.6888 47.8399 35.7478C48.424 32.9898 48.9918 30.5076 49.5434 28.3012C50.095 26.0947 50.4519 24.6508 50.6142 23.9694C50.8088 23.2556 50.9549 22.3471 51.0522 21.2439C51.1495 20.1406 51.1982 18.5507 51.1982 16.4741C51.1982 15.2086 51.474 14.1217 52.0256 13.2131C52.5772 12.3046 53.1775 11.6232 53.8265 11.1689C54.5079 10.7147 55.4164 10.3578 56.552 10.0982C57.6877 9.80615 58.5313 9.62769 59.0829 9.5628C59.667 9.4979 60.4133 9.44923 61.3218 9.41678C62.5872 9.35189 63.4633 9.87105 63.95 10.9743C64.4367 12.0775 64.8261 14.3326 65.1181 17.7395C65.183 18.5832 65.2317 19.3944 65.2642 20.1731C65.2966 20.9194 65.2966 21.6981 65.2642 22.5093C65.2317 23.288 65.1993 23.9532 65.1668 24.5048C65.1668 25.024 65.0857 25.7054 64.9235 26.549C64.7937 27.3602 64.6963 27.9605 64.6314 28.3498C64.5665 28.7392 64.4205 29.4044 64.1934 30.3453C63.9663 31.2539 63.8202 31.8541 63.7554 32.1462C63.6905 32.4058 63.512 33.0871 63.22 34.1904C62.9279 35.2611 62.7495 35.9263 62.6846 36.1859C61.8734 39.2035 61.4354 42.8538 61.3705 47.1369C61.338 51.3875 61.2731 55.6056 61.1758 59.7913C61.0784 63.9771 60.5431 67.6112 59.5696 70.6937C59.1803 71.9267 58.7585 72.9163 58.3042 73.6626C57.8824 74.4089 57.4443 75.0092 56.9901 75.4634C56.5683 75.9177 55.8869 76.2259 54.9459 76.3882C54.0049 76.5829 53.1288 76.6964 52.3177 76.7289C51.5389 76.7938 50.2572 76.8262 48.4726 76.8262C47.1747 76.8262 44.9034 75.285 41.6587 72.2025C38.4464 69.12 35.948 65.7454 34.1633 62.0789C33.1899 60.0671 31.9083 57.8445 30.3183 55.4109C28.7284 52.9774 26.8789 50.6736 24.7698 48.4997C22.6608 46.3257 20.8924 45.2387 19.4647 45.2387C18.2641 45.2387 17.3556 46.3257 16.7391 48.4997C16.1551 50.6736 15.4899 54.0319 14.7436 58.5746C13.9973 63.0848 13.1374 66.8811 12.164 69.9636C11.872 70.937 11.3366 71.6833 10.5579 72.2025C9.77914 72.6892 9.11397 72.965 8.56236 73.0299C8.01076 73.1272 7.08601 73.2083 5.78811 73.2732C5.52853 73.3057 5.33385 73.3219 5.20406 73.3219C3.71148 73.4192 2.42981 72.8027 1.35905 71.4724C0.288283 70.1096 -0.149757 68.1141 0.0449271 65.4859Z" fill="black"></path></svg>